<svg height="384pt" viewBox="0 0 384 384" width="384pt" xmlns="http://www.w3.org/2000/svg"><path d="m368 64h-224v-48c0-8.832031-7.167969-16-16-16h-112c-8.832031 0-16 7.167969-16 16v352c0 8.832031 7.167969 16 16 16h352c8.832031 0 16-7.167969 16-16v-288c0-8.832031-7.167969-16-16-16zm-336 288v-192h48c8.832031 0 16-7.167969 16-16s-7.167969-16-16-16h-48v-96h80v48c0 8.832031 7.167969 16 16 16h224v192h-48c-8.832031 0-16 7.167969-16 16s7.167969 16 16 16h48v32zm0 0"/><path d="m228.6875 244.6875-20.6875 20.6875v-121.375c0-8.832031-7.167969-16-16-16s-16 7.167969-16 16v121.367188l-20.6875-20.679688c-6.25-6.246094-16.375-6.246094-22.625 0-6.246094 6.25-6.246094 16.375 0 22.625l48 48c.769531.765625 1.601562 1.449219 2.488281 2.03125.640625.425781 1.320313.734375 2 1.054688.265625.128906.503907.296874.777344.410156.734375.304687 1.503906.496094 2.261719.679687.242187.054688.464844.160157.714844.207031 1.007812.199219 2.039062.304688 3.070312.304688s2.0625-.105469 3.078125-.304688c.121094-.023437.242187-.078124.371094-.109374.894531-.203126 1.78125-.449219 2.640625-.800782.015625-.007812.023437-.007812.039062-.007812.039063-.015625.070313-.050782.109375-.074219 1.226563-.519531 2.371094-1.238281 3.457031-2.078125.296876-.234375.585938-.457031.863282-.703125.25-.21875.519531-.386719.753906-.617187l48-48c6.246094-6.25 6.246094-16.375 0-22.625-6.25-6.238282-16.375-6.238282-22.625.007812zm0 0"/></svg>